<svg width="461" height="402" viewBox="0 0 461 402" fill="none" xmlns="http://www.w3.org/2000/svg">
<g filter="url(#filter0_f_117_20)">
<path d="M222.5 4.00005C231.248 4.09213 320 135.233 320 186.198C320 198.315 317.477 210.314 312.577 221.508C307.677 232.703 300.495 242.875 291.441 251.443C273.156 268.747 248.356 278.468 222.498 278.467C196.639 278.466 171.84 268.744 153.555 251.44C135.271 234.135 124.999 210.665 125 186.193C125 135.233 213.752 3.90797 222.5 4.00005Z" fill="#42A0F0"/>
<g filter="url(#filter1_f_117_20)">
<path d="M148.161 220.684C157.903 223.503 170.285 211.907 175.816 194.785C181.348 177.663 177.934 161.497 168.192 158.679C158.45 155.86 146.068 167.455 140.536 184.577C135.005 201.7 138.419 217.865 148.161 220.684Z" fill="white"/>
</g>
</g>
<g filter="url(#filter2_d_117_20)">
<path d="M22.4347 338.574V372H6.39915V294.909H21.983V324.383H22.6605C23.9654 320.97 26.0734 318.297 28.9844 316.365C31.8954 314.408 35.5466 313.429 39.9382 313.429C43.9534 313.429 47.4541 314.307 50.4403 316.064C53.4517 317.795 55.7855 320.292 57.4418 323.555C59.1231 326.792 59.9512 330.669 59.9261 335.186V372H43.8906V338.047C43.9157 334.483 43.0123 331.71 41.1804 329.728C39.3736 327.746 36.839 326.754 33.5767 326.754C31.3935 326.754 29.4612 327.219 27.7798 328.147C26.1236 329.076 24.8187 330.431 23.8651 332.212C22.9366 333.969 22.4598 336.089 22.4347 338.574ZM109.623 347.382V314.182H125.659V372H110.263V361.498H109.661C108.356 364.886 106.185 367.608 103.149 369.666C100.137 371.724 96.4609 372.753 92.1195 372.753C88.2549 372.753 84.8546 371.875 81.9185 370.118C78.9824 368.361 76.6863 365.864 75.03 362.627C73.3989 359.39 72.5707 355.513 72.5456 350.996V314.182H88.5811V348.135C88.6062 351.548 89.5222 354.246 91.329 356.228C93.1358 358.21 95.5575 359.202 98.5939 359.202C100.526 359.202 102.333 358.763 104.014 357.884C105.696 356.981 107.051 355.651 108.08 353.894C109.134 352.138 109.648 349.967 109.623 347.382ZM138.485 372V314.182H153.768V324.383H154.445C155.65 320.995 157.657 318.322 160.468 316.365C163.279 314.408 166.641 313.429 170.556 313.429C174.521 313.429 177.896 314.42 180.682 316.403C183.467 318.36 185.324 321.02 186.253 324.383H186.855C188.035 321.07 190.168 318.423 193.254 316.44C196.366 314.433 200.042 313.429 204.283 313.429C209.679 313.429 214.058 315.148 217.42 318.586C220.808 321.999 222.502 326.842 222.502 333.116V372H206.504V336.278C206.504 333.066 205.651 330.656 203.945 329.05C202.238 327.444 200.105 326.641 197.545 326.641C194.634 326.641 192.363 327.57 190.732 329.427C189.101 331.259 188.286 333.68 188.286 336.692V372H172.739V335.939C172.739 333.103 171.924 330.845 170.293 329.163C168.687 327.482 166.566 326.641 163.931 326.641C162.149 326.641 160.543 327.093 159.113 327.996C157.708 328.875 156.591 330.117 155.763 331.723C154.935 333.304 154.521 335.161 154.521 337.294V372H138.485ZM235.169 372V314.182H251.204V372H235.169ZM243.224 306.729C240.84 306.729 238.795 305.938 237.088 304.357C235.407 302.751 234.566 300.831 234.566 298.598C234.566 296.39 235.407 294.495 237.088 292.914C238.795 291.308 240.84 290.505 243.224 290.505C245.608 290.505 247.641 291.308 249.322 292.914C251.029 294.495 251.882 296.39 251.882 298.598C251.882 300.831 251.029 302.751 249.322 304.357C247.641 305.938 245.608 306.729 243.224 306.729ZM285.355 372.941C280.963 372.941 276.986 371.812 273.422 369.553C269.884 367.27 267.073 363.92 264.991 359.503C262.933 355.061 261.904 349.616 261.904 343.166C261.904 336.541 262.97 331.033 265.104 326.641C267.237 322.225 270.072 318.925 273.611 316.741C277.174 314.533 281.076 313.429 285.317 313.429C288.555 313.429 291.252 313.981 293.41 315.085C295.594 316.164 297.35 317.519 298.68 319.151C300.035 320.757 301.064 322.338 301.767 323.893H302.256V294.909H318.254V372H302.444V362.74H301.767C301.014 364.346 299.948 365.94 298.567 367.521C297.212 369.076 295.443 370.369 293.26 371.398C291.102 372.427 288.467 372.941 285.355 372.941ZM290.437 360.18C293.021 360.18 295.205 359.478 296.986 358.072C298.793 356.642 300.173 354.647 301.127 352.087C302.106 349.528 302.595 346.529 302.595 343.091C302.595 339.653 302.118 336.667 301.165 334.132C300.211 331.598 298.831 329.64 297.024 328.26C295.217 326.88 293.021 326.19 290.437 326.19C287.802 326.19 285.581 326.905 283.774 328.335C281.967 329.766 280.599 331.748 279.671 334.283C278.742 336.817 278.278 339.753 278.278 343.091C278.278 346.454 278.742 349.427 279.671 352.012C280.625 354.572 281.992 356.579 283.774 358.035C285.581 359.465 287.802 360.18 290.437 360.18ZM331.438 372V314.182H347.474V372H331.438ZM339.494 306.729C337.11 306.729 335.064 305.938 333.358 304.357C331.677 302.751 330.836 300.831 330.836 298.598C330.836 296.39 331.677 294.495 333.358 292.914C335.064 291.308 337.11 290.505 339.494 290.505C341.878 290.505 343.91 291.308 345.592 292.914C347.298 294.495 348.151 296.39 348.151 298.598C348.151 300.831 347.298 302.751 345.592 304.357C343.91 305.938 341.878 306.729 339.494 306.729ZM391.073 314.182V326.227H356.254V314.182H391.073ZM364.159 300.33H380.194V354.233C380.194 355.714 380.42 356.868 380.872 357.696C381.323 358.499 381.951 359.064 382.754 359.39C383.582 359.716 384.535 359.879 385.615 359.879C386.367 359.879 387.12 359.817 387.873 359.691C388.626 359.54 389.203 359.428 389.605 359.352L392.127 371.285C391.324 371.536 390.194 371.824 388.739 372.151C387.283 372.502 385.514 372.715 383.431 372.79C379.567 372.941 376.179 372.427 373.268 371.247C370.382 370.068 368.136 368.236 366.53 365.751C364.924 363.267 364.133 360.13 364.159 356.341V300.33ZM411.418 393.682C409.385 393.682 407.478 393.519 405.697 393.192C403.94 392.891 402.484 392.502 401.33 392.026L404.944 380.055C406.826 380.633 408.52 380.946 410.025 380.996C411.556 381.047 412.874 380.695 413.978 379.942C415.107 379.19 416.023 377.91 416.726 376.103L417.667 373.656L396.926 314.182H413.79L425.76 356.642H426.362L438.445 314.182H455.422L432.949 378.249C431.87 381.36 430.402 384.071 428.545 386.379C426.713 388.713 424.392 390.507 421.581 391.762C418.771 393.042 415.383 393.682 411.418 393.682Z" fill="white"/>
</g>
<defs>
<filter id="filter0_f_117_20" x="121" y="0" width="203" height="282.467" filterUnits="userSpaceOnUse" color-interpolation-filters="sRGB">
<feFlood flood-opacity="0" result="BackgroundImageFix"/>
<feBlend mode="normal" in="SourceGraphic" in2="BackgroundImageFix" result="shape"/>
<feGaussianBlur stdDeviation="2" result="effect1_foregroundBlur_117_20"/>
</filter>
<filter id="filter1_f_117_20" x="117.888" y="138.256" width="80.5767" height="102.85" filterUnits="userSpaceOnUse" color-interpolation-filters="sRGB">
<feFlood flood-opacity="0" result="BackgroundImageFix"/>
<feBlend mode="normal" in="SourceGraphic" in2="BackgroundImageFix" result="shape"/>
<feGaussianBlur stdDeviation="10" result="effect1_foregroundBlur_117_20"/>
</filter>
<filter id="filter2_d_117_20" x="2.39917" y="290.505" width="457.023" height="111.177" filterUnits="userSpaceOnUse" color-interpolation-filters="sRGB">
<feFlood flood-opacity="0" result="BackgroundImageFix"/>
<feColorMatrix in="SourceAlpha" type="matrix" values="0 0 0 0 0 0 0 0 0 0 0 0 0 0 0 0 0 0 127 0" result="hardAlpha"/>
<feOffset dy="4"/>
<feGaussianBlur stdDeviation="2"/>
<feComposite in2="hardAlpha" operator="out"/>
<feColorMatrix type="matrix" values="0 0 0 0 0 0 0 0 0 0 0 0 0 0 0 0 0 0 0.25 0"/>
<feBlend mode="normal" in2="BackgroundImageFix" result="effect1_dropShadow_117_20"/>
<feBlend mode="normal" in="SourceGraphic" in2="effect1_dropShadow_117_20" result="shape"/>
</filter>
</defs>
</svg>
