<svg width="239" height="417" viewBox="0 0 239 417" fill="none" xmlns="http://www.w3.org/2000/svg">
<g filter="url(#filter0_d_107_15)">
<path d="M25.3991 398V340.182H40.6818V350.383H41.3594C42.5639 346.995 44.5715 344.322 47.3821 342.365C50.1927 340.408 53.5554 339.429 57.4702 339.429C61.4351 339.429 64.8104 340.42 67.5959 342.403C70.3814 344.36 72.2384 347.02 73.1669 350.383H73.7692C74.9486 347.07 77.0817 344.423 80.1683 342.44C83.2801 340.433 86.9564 339.429 91.1974 339.429C96.5928 339.429 100.972 341.148 104.335 344.586C107.722 347.999 109.416 352.842 109.416 359.116V398H93.4183V362.278C93.4183 359.066 92.5651 356.656 90.8587 355.05C89.1522 353.444 87.0192 352.641 84.4595 352.641C81.5485 352.641 79.2775 353.57 77.6463 355.427C76.0152 357.259 75.1996 359.68 75.1996 362.692V398H59.6534V361.939C59.6534 359.103 58.8378 356.845 57.2067 355.163C55.6006 353.482 53.4801 352.641 50.8452 352.641C49.0634 352.641 47.4574 353.093 46.027 353.996C44.6217 354.875 43.505 356.117 42.6768 357.723C41.8487 359.304 41.4347 361.161 41.4347 363.294V398H25.3991ZM122.083 398V340.182H138.118V398H122.083ZM130.138 332.729C127.754 332.729 125.709 331.938 124.002 330.357C122.321 328.751 121.48 326.831 121.48 324.598C121.48 322.39 122.321 320.495 124.002 318.914C125.709 317.308 127.754 316.505 130.138 316.505C132.522 316.505 134.555 317.308 136.236 318.914C137.943 320.495 138.796 322.39 138.796 324.598C138.796 326.831 137.943 328.751 136.236 330.357C134.555 331.938 132.522 332.729 130.138 332.729ZM166.999 364.574V398H150.964V340.182H166.246V350.383H166.924C168.204 347.02 170.349 344.36 173.361 342.403C176.372 340.42 180.023 339.429 184.314 339.429C188.33 339.429 191.83 340.307 194.817 342.064C197.803 343.821 200.124 346.33 201.78 349.592C203.437 352.83 204.265 356.694 204.265 361.186V398H188.229V364.047C188.254 360.509 187.351 357.748 185.519 355.766C183.687 353.758 181.165 352.754 177.953 352.754C175.795 352.754 173.888 353.219 172.231 354.147C170.6 355.076 169.32 356.431 168.392 358.212C167.488 359.969 167.024 362.089 166.999 364.574Z" fill="white"/>
</g>
<g filter="url(#filter1_f_107_15)">
<path d="M67.2392 67.098L67.2392 185.582" stroke="#42A0F0" stroke-width="10" stroke-linecap="round"/>
<path d="M67.0022 96.061L87.4082 74.997" stroke="#42A0F0" stroke-width="10" stroke-linecap="round"/>
<path d="M67.0022 96.061L45.9382 74.997" stroke="#42A0F0" stroke-width="10" stroke-linecap="round"/>
<path d="M67.0022 159.252L87.4082 180.316" stroke="#42A0F0" stroke-width="10" stroke-linecap="round"/>
<path d="M67.0022 159.252L45.9382 180.316" stroke="#42A0F0" stroke-width="10" stroke-linecap="round"/>
<path d="M118.261 97.2092L15.6505 156.451" stroke="#42A0F0" stroke-width="10" stroke-linecap="round"/>
<path d="M93.0594 111.485L121.504 118.626" stroke="#42A0F0" stroke-width="10" stroke-linecap="round"/>
<path d="M93.0595 111.486L100.769 82.7115" stroke="#42A0F0" stroke-width="10" stroke-linecap="round"/>
<path d="M38.3345 143.081L30.2955 171.285" stroke="#42A0F0" stroke-width="10" stroke-linecap="round"/>
<path d="M38.3345 143.081L9.56053 135.371" stroke="#42A0F0" stroke-width="10" stroke-linecap="round"/>
<path d="M117.695 156.451L15.0845 97.2092" stroke="#42A0F0" stroke-width="10" stroke-linecap="round"/>
<path d="M92.7305 141.764L100.769 169.969" stroke="#42A0F0" stroke-width="10" stroke-linecap="round"/>
<path d="M92.7304 141.764L121.504 134.055" stroke="#42A0F0" stroke-width="10" stroke-linecap="round"/>
<path d="M38.0055 110.169L9.56054 117.309" stroke="#42A0F0" stroke-width="10" stroke-linecap="round"/>
<path d="M38.0055 110.169L30.2955 81.395" stroke="#42A0F0" stroke-width="10" stroke-linecap="round"/>
</g>
<g filter="url(#filter2_f_107_15)">
<g filter="url(#filter3_d_107_15)">
<path d="M82.4002 199.055L82.4002 63C82.4002 53.7174 86.0877 44.815 92.6514 38.2513C99.2152 31.6875 108.118 28 117.4 28C126.683 28 135.585 31.6875 142.149 38.2513C148.713 44.815 152.4 53.7174 152.4 63L152.4 201.97C161.477 209.088 168.309 218.672 172.08 229.573C175.851 240.475 176.4 252.232 173.662 263.437C170.923 274.642 165.014 284.821 156.64 292.755C148.267 300.688 137.784 306.04 126.447 308.17C122.332 309.261 118.054 309.6 113.819 309.17C101.047 308.837 88.7147 304.437 78.6171 296.609C68.5195 288.781 61.184 277.935 57.6784 265.649C54.1729 253.363 54.6803 240.278 59.1268 228.301C63.5733 216.323 71.7267 206.077 82.4002 199.055V199.055Z" fill="url(#paint0_linear_107_15)"/>
<path d="M56.3755 249.189C56.3755 257.029 57.8883 264.644 60.8719 271.821C63.7539 278.754 67.8868 285.005 73.156 290.402C75.7514 293.061 78.6102 295.485 81.6531 297.609C84.7224 299.75 88.0075 301.605 91.4173 303.122C98.4991 306.273 106.045 307.971 113.845 308.169L113.883 308.17L113.92 308.174C115.068 308.291 116.238 308.35 117.4 308.35C120.381 308.35 123.338 307.964 126.189 307.203L126.226 307.193L126.264 307.186C133.003 305.929 139.419 303.521 145.332 300.029C151.123 296.61 156.256 292.258 160.589 287.096C164.954 281.896 168.359 276.046 170.71 269.71C173.143 263.153 174.376 256.248 174.376 249.189C174.376 244.564 173.839 239.958 172.78 235.501C171.751 231.169 170.223 226.949 168.238 222.957C166.289 219.036 163.893 215.323 161.117 211.919C158.357 208.536 155.216 205.453 151.782 202.757L151.4 202.457V201.97L151.4 63.0001C151.4 58.4096 150.501 53.957 148.729 49.766C147.016 45.7174 144.565 42.0811 141.442 38.9583C138.319 35.8355 134.683 33.3839 130.634 31.6715C126.443 29.8988 121.99 29 117.4 29C112.81 29 108.357 29.8988 104.166 31.6715C100.117 33.3839 96.481 35.8355 93.3582 38.9583C90.2354 42.0811 87.7837 45.7174 86.0713 49.766C84.2987 53.957 83.3999 58.4096 83.3999 63.0001L83.3999 199.055V199.593L82.9502 199.89C74.9466 205.164 68.2756 212.384 63.6581 220.769C61.3109 225.031 59.5001 229.575 58.2762 234.275C57.0151 239.117 56.3755 244.135 56.3755 249.189ZM55.3755 249.189C55.3755 228.231 66.1184 209.785 82.3999 199.055L82.3999 63.0001C82.3999 43.6699 98.0698 28 117.4 28C136.73 28 152.4 43.6699 152.4 63.0001L152.4 201.97C166.389 212.955 175.376 230.023 175.376 249.189C175.376 278.543 154.296 302.975 126.447 308.169C123.561 308.94 120.529 309.35 117.4 309.35C116.191 309.35 114.997 309.289 113.819 309.169C81.4007 308.344 55.3755 281.806 55.3755 249.189Z" fill="white" fill-opacity="0.5"/>
</g>
<path d="M116.638 250.559C142.043 250.559 162.638 225.154 162.638 250.559C162.638 262.759 157.792 274.459 149.165 283.086C140.538 291.713 128.838 296.559 116.638 296.559C104.438 296.559 92.7379 291.713 84.1113 283.086C75.4846 274.459 70.6382 262.759 70.6382 250.559C70.6382 225.154 91.2332 250.559 116.638 250.559Z" fill="white"/>
</g>
<defs>
<filter id="filter0_d_107_15" x="21.3992" y="316.505" width="186.866" height="89.4951" filterUnits="userSpaceOnUse" color-interpolation-filters="sRGB">
<feFlood flood-opacity="0" result="BackgroundImageFix"/>
<feColorMatrix in="SourceAlpha" type="matrix" values="0 0 0 0 0 0 0 0 0 0 0 0 0 0 0 0 0 0 127 0" result="hardAlpha"/>
<feOffset dy="4"/>
<feGaussianBlur stdDeviation="2"/>
<feComposite in2="hardAlpha" operator="out"/>
<feColorMatrix type="matrix" values="0 0 0 0 0 0 0 0 0 0 0 0 0 0 0 0 0 0 0.25 0"/>
<feBlend mode="normal" in2="BackgroundImageFix" result="effect1_dropShadow_107_15"/>
<feBlend mode="normal" in="SourceGraphic" in2="effect1_dropShadow_107_15" result="shape"/>
</filter>
<filter id="filter1_f_107_15" x="0.559265" y="58.098" width="129.946" height="136.484" filterUnits="userSpaceOnUse" color-interpolation-filters="sRGB">
<feFlood flood-opacity="0" result="BackgroundImageFix"/>
<feBlend mode="normal" in="SourceGraphic" in2="BackgroundImageFix" result="shape"/>
<feGaussianBlur stdDeviation="2" result="effect1_foregroundBlur_107_15"/>
</filter>
<filter id="filter2_f_107_15" x="51.3755" y="24" width="128.002" height="289.351" filterUnits="userSpaceOnUse" color-interpolation-filters="sRGB">
<feFlood flood-opacity="0" result="BackgroundImageFix"/>
<feBlend mode="normal" in="SourceGraphic" in2="BackgroundImageFix" result="shape"/>
<feGaussianBlur stdDeviation="2" result="effect1_foregroundBlur_107_15"/>
</filter>
<filter id="filter3_d_107_15" x="35.3755" y="0" width="180.002" height="341.351" filterUnits="userSpaceOnUse" color-interpolation-filters="sRGB">
<feFlood flood-opacity="0" result="BackgroundImageFix"/>
<feColorMatrix in="SourceAlpha" type="matrix" values="0 0 0 0 0 0 0 0 0 0 0 0 0 0 0 0 0 0 127 0" result="hardAlpha"/>
<feOffset dx="10" dy="2"/>
<feGaussianBlur stdDeviation="15"/>
<feColorMatrix type="matrix" values="0 0 0 0 0.258824 0 0 0 0 0.627451 0 0 0 0 0.941176 0 0 0 0.596 0"/>
<feBlend mode="normal" in2="BackgroundImageFix" result="effect1_dropShadow_107_15"/>
<feBlend mode="normal" in="SourceGraphic" in2="effect1_dropShadow_107_15" result="shape"/>
</filter>
<linearGradient id="paint0_linear_107_15" x1="160.257" y1="141.947" x2="42.2075" y2="169.913" gradientUnits="userSpaceOnUse">
<stop stop-color="white" stop-opacity="0.596"/>
<stop offset="1" stop-color="#F7F7F7" stop-opacity="0.204"/>
</linearGradient>
</defs>
</svg>
