<svg width="263" height="417" viewBox="0 0 263 417" fill="none" xmlns="http://www.w3.org/2000/svg">
<g filter="url(#filter0_f_107_12)">
<path d="M78.033 193C113.913 193 143 164.386 143 129.088C143 93.7907 113.913 65.1764 78.033 65.1764C42.1526 65.1764 13.0659 93.7907 13.0659 129.088C13.0659 164.386 42.1526 193 78.033 193Z" fill="#FA9E42"/>
<g filter="url(#filter1_f_107_12)">
<path d="M73.3383 119.999C94.9302 108.774 107.007 89.6737 100.313 77.3372C93.6182 65.0007 70.6876 64.0998 49.0956 75.325C27.5037 86.5503 15.4269 105.651 22.1213 117.987C28.8157 130.324 51.7463 131.225 73.3383 119.999Z" fill="#F8E36F"/>
</g>
</g>
<g filter="url(#filter2_f_107_12)">
<g filter="url(#filter3_d_107_12)">
<path d="M113.4 199.055L113.4 63C113.4 53.7174 117.088 44.815 123.651 38.2513C130.215 31.6875 139.118 28 148.4 28C157.683 28 166.585 31.6875 173.149 38.2513C179.713 44.815 183.4 53.7174 183.4 63L183.4 201.97C192.477 209.088 199.309 218.672 203.08 229.573C206.851 240.475 207.4 252.232 204.662 263.437C201.923 274.642 196.014 284.821 187.64 292.755C179.267 300.688 168.784 306.04 157.447 308.17C153.332 309.261 149.054 309.6 144.819 309.17C132.047 308.837 119.715 304.437 109.617 296.609C99.5195 288.781 92.184 277.935 88.6784 265.649C85.1729 253.363 85.6803 240.278 90.1268 228.301C94.5732 216.323 102.727 206.077 113.4 199.055V199.055Z" fill="url(#paint0_linear_107_12)"/>
<path d="M87.3755 249.189C87.3755 257.029 88.8883 264.644 91.8719 271.821C94.7539 278.754 98.8868 285.005 104.156 290.402C106.751 293.061 109.61 295.485 112.653 297.609C115.722 299.75 119.007 301.605 122.417 303.122C129.499 306.273 137.045 307.971 144.845 308.169L144.883 308.17L144.92 308.174C146.068 308.291 147.238 308.35 148.4 308.35C151.381 308.35 154.338 307.964 157.189 307.203L157.226 307.193L157.264 307.186C164.003 305.929 170.419 303.521 176.332 300.029C182.123 296.61 187.256 292.258 191.589 287.096C195.954 281.896 199.359 276.046 201.71 269.71C204.143 263.153 205.376 256.248 205.376 249.189C205.376 244.564 204.839 239.958 203.78 235.501C202.751 231.169 201.223 226.949 199.238 222.957C197.289 219.036 194.893 215.323 192.117 211.919C189.356 208.536 186.216 205.453 182.782 202.757L182.4 202.457V201.97L182.4 63.0001C182.4 58.4096 181.501 53.957 179.729 49.766C178.016 45.7174 175.565 42.0811 172.442 38.9583C169.319 35.8355 165.683 33.3839 161.634 31.6715C157.443 29.8988 152.99 29 148.4 29C143.809 29 139.357 29.8988 135.166 31.6715C131.117 33.3839 127.481 35.8355 124.358 38.9583C121.235 42.0811 118.784 45.7174 117.071 49.766C115.299 53.957 114.4 58.4096 114.4 63.0001L114.4 199.055V199.593L113.95 199.89C105.947 205.164 99.2755 212.384 94.6581 220.769C92.3109 225.031 90.5001 229.575 89.2762 234.275C88.015 239.117 87.3755 244.135 87.3755 249.189ZM86.3755 249.189C86.3755 228.231 97.1184 209.785 113.4 199.055L113.4 63.0001C113.4 43.6699 129.07 28 148.4 28C167.73 28 183.4 43.6699 183.4 63.0001L183.4 201.97C197.389 212.955 206.376 230.023 206.376 249.189C206.376 278.543 185.296 302.975 157.447 308.169C154.561 308.94 151.529 309.35 148.4 309.35C147.191 309.35 145.997 309.289 144.819 309.169C112.401 308.344 86.3755 281.806 86.3755 249.189Z" fill="white" fill-opacity="0.5"/>
</g>
<path d="M102.502 250.552C102.5 242.089 104.833 233.79 109.244 226.567C113.655 219.344 119.973 213.479 127.502 209.615V159.552H169.502V209.614C176.772 213.344 182.917 218.943 187.305 225.836C191.693 232.728 194.166 240.665 194.47 248.83C194.774 256.995 192.898 265.094 189.034 272.293C185.17 279.493 179.458 285.533 172.486 289.793C165.514 294.054 157.533 296.38 149.363 296.533C141.194 296.686 133.131 294.66 126.004 290.664C118.878 286.668 112.944 280.845 108.813 273.795C104.682 266.746 102.504 258.723 102.502 250.552V250.552Z" fill="#DD3930"/>
</g>
<g filter="url(#filter4_d_107_12)">
<path d="M48.3991 398V340.182H63.6818V350.383H64.3594C65.5639 346.995 67.5715 344.322 70.3821 342.365C73.1927 340.408 76.5554 339.429 80.4702 339.429C84.4351 339.429 87.8104 340.42 90.5959 342.403C93.3814 344.36 95.2384 347.02 96.1669 350.383H96.7692C97.9486 347.07 100.082 344.423 103.168 342.44C106.28 340.433 109.956 339.429 114.197 339.429C119.593 339.429 123.972 341.148 127.335 344.586C130.722 347.999 132.416 352.842 132.416 359.116V398H116.418V362.278C116.418 359.066 115.565 356.656 113.859 355.05C112.152 353.444 110.019 352.641 107.46 352.641C104.549 352.641 102.277 353.57 100.646 355.427C99.0152 357.259 98.1996 359.68 98.1996 362.692V398H82.6534V361.939C82.6534 359.103 81.8378 356.845 80.2067 355.163C78.6006 353.482 76.4801 352.641 73.8452 352.641C72.0634 352.641 70.4574 353.093 69.027 353.996C67.6217 354.875 66.505 356.117 65.6768 357.723C64.8487 359.304 64.4347 361.161 64.4347 363.294V398H48.3991ZM161.57 399.092C157.881 399.092 154.594 398.452 151.708 397.172C148.822 395.867 146.538 393.947 144.857 391.413C143.201 388.853 142.373 385.666 142.373 381.852C142.373 378.639 142.962 375.942 144.142 373.759C145.321 371.575 146.927 369.819 148.96 368.489C150.993 367.159 153.301 366.155 155.886 365.477C158.496 364.8 161.231 364.323 164.092 364.047C167.455 363.696 170.165 363.369 172.223 363.068C174.28 362.742 175.774 362.265 176.702 361.638C177.631 361.01 178.095 360.082 178.095 358.852V358.626C178.095 356.242 177.342 354.398 175.836 353.093C174.356 351.788 172.248 351.136 169.512 351.136C166.627 351.136 164.33 351.776 162.624 353.055C160.917 354.31 159.788 355.891 159.236 357.798L144.405 356.594C145.158 353.08 146.639 350.044 148.847 347.484C151.055 344.9 153.904 342.917 157.392 341.537C160.905 340.132 164.97 339.429 169.588 339.429C172.8 339.429 175.874 339.805 178.81 340.558C181.771 341.311 184.394 342.478 186.677 344.059C188.986 345.64 190.805 347.673 192.135 350.157C193.465 352.616 194.13 355.565 194.13 359.003V398H178.923V389.982H178.471C177.543 391.789 176.301 393.383 174.745 394.763C173.189 396.118 171.319 397.184 169.136 397.962C166.953 398.715 164.431 399.092 161.57 399.092ZM166.162 388.025C168.521 388.025 170.604 387.561 172.411 386.632C174.218 385.679 175.636 384.399 176.664 382.793C177.693 381.187 178.208 379.367 178.208 377.335V371.199C177.706 371.525 177.016 371.826 176.137 372.102C175.284 372.353 174.318 372.592 173.239 372.817C172.16 373.018 171.081 373.206 170.002 373.382C168.923 373.533 167.944 373.671 167.066 373.796C165.184 374.072 163.54 374.511 162.135 375.114C160.729 375.716 159.638 376.531 158.86 377.56C158.082 378.564 157.693 379.819 157.693 381.325C157.693 383.508 158.483 385.177 160.064 386.331C161.67 387.46 163.703 388.025 166.162 388.025ZM219.972 340.182L230.587 360.396L241.465 340.182H257.915L241.164 369.091L258.366 398H241.992L230.587 378.012L219.369 398H202.807L219.972 369.091L203.409 340.182H219.972Z" fill="white"/>
</g>
<defs>
<filter id="filter0_f_107_12" x="9.0659" y="61.1764" width="137.934" height="135.824" filterUnits="userSpaceOnUse" color-interpolation-filters="sRGB">
<feFlood flood-opacity="0" result="BackgroundImageFix"/>
<feBlend mode="normal" in="SourceGraphic" in2="BackgroundImageFix" result="shape"/>
<feGaussianBlur stdDeviation="2" result="effect1_foregroundBlur_107_12"/>
</filter>
<filter id="filter1_f_107_12" x="0.27446" y="47.4617" width="121.885" height="100.401" filterUnits="userSpaceOnUse" color-interpolation-filters="sRGB">
<feFlood flood-opacity="0" result="BackgroundImageFix"/>
<feBlend mode="normal" in="SourceGraphic" in2="BackgroundImageFix" result="shape"/>
<feGaussianBlur stdDeviation="10" result="effect1_foregroundBlur_107_12"/>
</filter>
<filter id="filter2_f_107_12" x="82.3755" y="24" width="128.002" height="289.351" filterUnits="userSpaceOnUse" color-interpolation-filters="sRGB">
<feFlood flood-opacity="0" result="BackgroundImageFix"/>
<feBlend mode="normal" in="SourceGraphic" in2="BackgroundImageFix" result="shape"/>
<feGaussianBlur stdDeviation="2" result="effect1_foregroundBlur_107_12"/>
</filter>
<filter id="filter3_d_107_12" x="66.3755" y="0" width="180.002" height="341.351" filterUnits="userSpaceOnUse" color-interpolation-filters="sRGB">
<feFlood flood-opacity="0" result="BackgroundImageFix"/>
<feColorMatrix in="SourceAlpha" type="matrix" values="0 0 0 0 0 0 0 0 0 0 0 0 0 0 0 0 0 0 127 0" result="hardAlpha"/>
<feOffset dx="10" dy="2"/>
<feGaussianBlur stdDeviation="15"/>
<feColorMatrix type="matrix" values="0 0 0 0 0.258824 0 0 0 0 0.627451 0 0 0 0 0.941176 0 0 0 0.596 0"/>
<feBlend mode="normal" in2="BackgroundImageFix" result="effect1_dropShadow_107_12"/>
<feBlend mode="normal" in="SourceGraphic" in2="effect1_dropShadow_107_12" result="shape"/>
</filter>
<filter id="filter4_d_107_12" x="44.3992" y="339.429" width="217.967" height="67.6627" filterUnits="userSpaceOnUse" color-interpolation-filters="sRGB">
<feFlood flood-opacity="0" result="BackgroundImageFix"/>
<feColorMatrix in="SourceAlpha" type="matrix" values="0 0 0 0 0 0 0 0 0 0 0 0 0 0 0 0 0 0 127 0" result="hardAlpha"/>
<feOffset dy="4"/>
<feGaussianBlur stdDeviation="2"/>
<feComposite in2="hardAlpha" operator="out"/>
<feColorMatrix type="matrix" values="0 0 0 0 0 0 0 0 0 0 0 0 0 0 0 0 0 0 0.25 0"/>
<feBlend mode="normal" in2="BackgroundImageFix" result="effect1_dropShadow_107_12"/>
<feBlend mode="normal" in="SourceGraphic" in2="effect1_dropShadow_107_12" result="shape"/>
</filter>
<linearGradient id="paint0_linear_107_12" x1="191.257" y1="141.947" x2="73.2075" y2="169.913" gradientUnits="userSpaceOnUse">
<stop stop-color="white" stop-opacity="0.596"/>
<stop offset="1" stop-color="#F7F7F7" stop-opacity="0.204"/>
</linearGradient>
</defs>
</svg>
