<svg width="401" height="339" viewBox="0 0 401 339" fill="none" xmlns="http://www.w3.org/2000/svg">
<g filter="url(#filter0_d_117_19)">
<g filter="url(#filter1_f_117_19)">
<path d="M112.65 118.578C112.65 118.578 293.35 120.444 332.473 108.202C371.596 95.9608 371.546 32.4263 332.473 16.7649C293.4 1.10355 280.046 57.0843 280.046 57.0843" stroke="#D0D0D0" stroke-width="20" stroke-linecap="round"/>
<path d="M157.495 185.349C157.495 185.349 290.109 172.44 348.571 185.349C407.034 198.258 388.418 235.292 360.711 236.984C333.004 238.677 307.437 219.062 307.437 219.062" stroke="#D0D0D0" stroke-width="20" stroke-linecap="round"/>
<path d="M40.5657 192.355H93.2906" stroke="#D0D0D0" stroke-width="20" stroke-linecap="round"/>
<path d="M14 38.9788C14 38.9788 54.2278 42.5718 101.895 42.5718C149.562 42.5718 214.173 35.8318 214.173 35.8318" stroke="#D0D0D0" stroke-width="20" stroke-linecap="round"/>
</g>
<g filter="url(#filter2_d_117_19)">
<path d="M70.7969 316L55.9531 261.455H71.2585L79.7102 298.102H80.2074L89.0142 261.455H104.036L112.984 297.889H113.446L121.756 261.455H137.026L122.217 316H106.202L96.8267 281.696H96.152L86.777 316H70.7969ZM145.096 316V261.455H160.223V316H145.096ZM152.695 254.423C150.446 254.423 148.516 253.678 146.907 252.186C145.32 250.671 144.527 248.86 144.527 246.753C144.527 244.67 145.32 242.882 146.907 241.391C148.516 239.875 150.446 239.118 152.695 239.118C154.944 239.118 156.862 239.875 158.448 241.391C160.058 242.882 160.863 244.67 160.863 246.753C160.863 248.86 160.058 250.671 158.448 252.186C156.862 253.678 154.944 254.423 152.695 254.423ZM187.469 284.466V316H172.342V261.455H186.759V271.078H187.398C188.606 267.906 190.63 265.396 193.471 263.55C196.312 261.679 199.756 260.744 203.805 260.744C207.593 260.744 210.895 261.573 213.712 263.23C216.53 264.887 218.719 267.255 220.282 270.332C221.844 273.386 222.626 277.032 222.626 281.27V316H207.498V283.969C207.522 280.631 206.669 278.027 204.941 276.156C203.213 274.262 200.834 273.315 197.803 273.315C195.767 273.315 193.968 273.753 192.406 274.629C190.867 275.505 189.659 276.784 188.783 278.464C187.931 280.122 187.493 282.122 187.469 284.466ZM254.648 316.888C250.505 316.888 246.753 315.822 243.391 313.692C240.053 311.537 237.401 308.377 235.436 304.21C233.495 300.02 232.525 294.883 232.525 288.798C232.525 282.548 233.531 277.352 235.543 273.209C237.555 269.042 240.23 265.929 243.569 263.869C246.93 261.786 250.612 260.744 254.613 260.744C257.667 260.744 260.212 261.265 262.248 262.307C264.307 263.325 265.964 264.603 267.219 266.142C268.498 267.657 269.468 269.149 270.131 270.616H270.593V243.273H285.685V316H270.77V307.264H270.131C269.421 308.779 268.415 310.283 267.113 311.774C265.834 313.242 264.165 314.461 262.105 315.432C260.069 316.402 257.584 316.888 254.648 316.888ZM259.442 304.849C261.881 304.849 263.94 304.187 265.621 302.861C267.326 301.511 268.628 299.629 269.527 297.214C270.451 294.8 270.912 291.971 270.912 288.727C270.912 285.484 270.462 282.667 269.563 280.276C268.663 277.884 267.361 276.038 265.657 274.736C263.952 273.434 261.881 272.783 259.442 272.783C256.956 272.783 254.861 273.457 253.157 274.807C251.452 276.156 250.162 278.027 249.286 280.418C248.41 282.809 247.972 285.579 247.972 288.727C247.972 291.9 248.41 294.705 249.286 297.143C250.185 299.558 251.476 301.452 253.157 302.825C254.861 304.175 256.956 304.849 259.442 304.849Z" fill="white"/>
</g>
</g>
<defs>
<filter id="filter0_d_117_19" x="-0.000610352" y="4.00012" width="401.001" height="320.888" filterUnits="userSpaceOnUse" color-interpolation-filters="sRGB">
<feFlood flood-opacity="0" result="BackgroundImageFix"/>
<feColorMatrix in="SourceAlpha" type="matrix" values="0 0 0 0 0 0 0 0 0 0 0 0 0 0 0 0 0 0 127 0" result="hardAlpha"/>
<feOffset dy="4"/>
<feGaussianBlur stdDeviation="2"/>
<feComposite in2="hardAlpha" operator="out"/>
<feColorMatrix type="matrix" values="0 0 0 0 0 0 0 0 0 0 0 0 0 0 0 0 0 0 0.25 0"/>
<feBlend mode="normal" in2="BackgroundImageFix" result="effect1_dropShadow_117_19"/>
<feBlend mode="normal" in="SourceGraphic" in2="effect1_dropShadow_117_19" result="shape"/>
</filter>
<filter id="filter1_f_117_19" x="-0.000610352" y="0.00012207" width="401.001" height="251.088" filterUnits="userSpaceOnUse" color-interpolation-filters="sRGB">
<feFlood flood-opacity="0" result="BackgroundImageFix"/>
<feBlend mode="normal" in="SourceGraphic" in2="BackgroundImageFix" result="shape"/>
<feGaussianBlur stdDeviation="2" result="effect1_foregroundBlur_117_19"/>
</filter>
<filter id="filter2_d_117_19" x="51.9531" y="239.118" width="237.732" height="85.7699" filterUnits="userSpaceOnUse" color-interpolation-filters="sRGB">
<feFlood flood-opacity="0" result="BackgroundImageFix"/>
<feColorMatrix in="SourceAlpha" type="matrix" values="0 0 0 0 0 0 0 0 0 0 0 0 0 0 0 0 0 0 127 0" result="hardAlpha"/>
<feOffset dy="4"/>
<feGaussianBlur stdDeviation="2"/>
<feComposite in2="hardAlpha" operator="out"/>
<feColorMatrix type="matrix" values="0 0 0 0 0 0 0 0 0 0 0 0 0 0 0 0 0 0 0.25 0"/>
<feBlend mode="normal" in2="BackgroundImageFix" result="effect1_dropShadow_117_19"/>
<feBlend mode="normal" in="SourceGraphic" in2="effect1_dropShadow_117_19" result="shape"/>
</filter>
</defs>
</svg>
